<svg xmlns="http://www.w3.org/2000/svg" xmlns:xlink="http://www.w3.org/1999/xlink" viewBox="0,0,256,256" width="25px" height="25px" fill-rule="nonzero"><g fill="#ffffff" fill-rule="nonzero" stroke="none" stroke-width="1" stroke-linecap="butt" stroke-linejoin="miter" stroke-miterlimit="10" stroke-dasharray="" stroke-dashoffset="0" font-family="none" font-weight="none" font-size="none" text-anchor="none" style="mix-blend-mode: normal"><g transform="scale(5.12,5.12)"><path d="M25,0c-1.0625,0 -2.13281,0.38281 -2.96875,1.15625c-0.01172,0.01172 -0.01953,0.01953 -0.03125,0.03125l-20.8125,20.90625c-1.59375,1.59375 -1.57812,4.19922 -0.03125,5.875c0.01172,0.01172 0.01953,0.01953 0.03125,0.03125l20.8125,20.8125c1.59375,1.59375 4.19922,1.57813 5.875,0.03125c0.01172,-0.01172 0.01953,-0.01953 0.03125,-0.03125l20.8125,-20.8125c1.66406,-1.66406 1.6875,-4.3125 0.09375,-5.90625l-20.90625,-20.90625c-0.79687,-0.79687 -1.84375,-1.1875 -2.90625,-1.1875zM24.96875,2c0.5625,0 1.12891,0.19141 1.53125,0.59375l20.90625,20.90625c0.80859,0.80859 0.8125,2.15625 -0.125,3.09375l-20.75,20.78125c-0.01172,0.01172 -0.01953,0.02344 -0.03125,0.03125c-0.92578,0.82422 -2.29687,0.79688 -3.09375,0l-20.78125,-20.78125c-0.01172,-0.01172 -0.01953,-0.01953 -0.03125,-0.03125c-0.41016,-0.46094 -0.59766,-1.03516 -0.59375,-1.59375c0,-0.14062 0.00391,-0.26953 0.03125,-0.40625c0.07813,-0.40625 0.26172,-0.79297 0.5625,-1.09375l20.78125,-20.875l0.03125,-0.03125c0.45703,-0.40625 1.01172,-0.59375 1.5625,-0.59375zM18,23c-1.10547,0 -2,0.89453 -2,2c0,1.10547 0.89453,2 2,2c1.10547,0 2,-0.89453 2,-2c0,-1.10547 -0.89453,-2 -2,-2zM25,23c-1.10547,0 -2,0.89453 -2,2c0,1.10547 0.89453,2 2,2c1.10547,0 2,-0.89453 2,-2c0,-1.10547 -0.89453,-2 -2,-2zM32,23c-1.10547,0 -2,0.89453 -2,2c0,1.10547 0.89453,2 2,2c1.10547,0 2,-0.89453 2,-2c0,-1.10547 -0.89453,-2 -2,-2z"></path></g></g></svg>